<svg width="48" height="48" viewBox="0 0 48 48" fill="none" xmlns="http://www.w3.org/2000/svg">
<path d="M10.0702 25.4101C10.0238 24.9463 10.0001 24.4759 10.0001 24C10.0001 23.5241 10.0238 23.0537 10.0702 22.5899L6.41162 18.4641L10.4116 11.5359L15.814 12.6414C16.5747 12.0923 17.3927 11.6176 18.2573 11.2282L20.0001 6H28.0001L29.7428 11.2282C30.6075 11.6176 31.4255 12.0923 32.1861 12.6414L37.5885 11.5359L41.5885 18.4641L37.9299 22.5899C37.9763 23.0537 38.0001 23.5241 38.0001 24C38.0001 24.4759 37.9763 24.9463 37.9299 25.4101L41.5885 29.5359L37.5885 36.4641L32.1861 35.3586C31.4255 35.9077 30.6075 36.3824 29.7428 36.7718L28.0001 42H20.0001L18.2573 36.7718C17.3927 36.3824 16.5747 35.9077 15.814 35.3586L10.4116 36.4641L6.41162 29.5359L10.0702 25.4101Z" stroke="white" stroke-width="2" stroke-linecap="square"/>
<path d="M24 26C25.1046 26 26 25.1046 26 24C26 22.8954 25.1046 22 24 22C22.8954 22 22 22.8954 22 24C22 25.1046 22.8954 26 24 26Z" stroke="white" stroke-width="2" stroke-linecap="square"/>
</svg>
